# xmcd
#
# Track frame offsets:
#	150
#	18735
#	33200
#	52297
#	69867
#	89565
#	109630
#	126110
#	146307
#	163570
#	182835
#	197327
#	215962
#
# Disc length: 3109 seconds
#
# Revision: 8
# Processed by: cddbd v1.5.2PL0 Copyright (c) Steve Scherf et al.
# Submitted via: EasyCDDAExtractor 15.3.0.1
#
DISCID=b90c230d
DTITLE=Luis Fonsi - Eterno
DYEAR=2000
DGENRE=Latin
TTITLE0=Imaginame Sin Ti
TTITLE1=Dejame O Dame Amor
TTITLE2=Eterno
TTITLE3=Te Vuelvo A Encontrar
TTITLE4=Dentro De Mi Corazon
TTITLE5=Dime Si Tu
TTITLE6=No Te Cambio Por Ninguna
TTITLE7=Cuanto Quisiera
TTITLE8=Dime Como Vuelvo A Tener Tu Corazon
TTITLE9=Mi Sueño
TTITLE10=Love Me Or Let Me Go
TTITLE11=Imagine Me Without You
TTITLE12=Seria Facil
EXTD=
EXTT0=
EXTT1=
EXTT2=
EXTT3=
EXTT4=
EXTT5=
EXTT6=
EXTT7=
EXTT8=
EXTT9=
EXTT10=
EXTT11=
EXTT12=
PLAYORDER=
